<?xml version="1.0" encoding="UTF-8"?>
<svg xmlns="http://www.w3.org/2000/svg" xmlns:xlink="http://www.w3.org/1999/xlink" width="194pt" height="194pt" viewBox="0 0 194 194" version="1.1">
<g id="surface1">
<path style=" stroke:none;fill-rule:evenodd;fill:rgb(100%,100%,100%);fill-opacity:1;" d="M 0.257813 0.675781 L 193.015625 0.675781 L 193.015625 193.433594 L 0.257813 193.433594 L 0.257813 0.675781 "/>
<path style=" stroke:none;fill-rule:evenodd;fill:rgb(13.699341%,12.199402%,12.5%);fill-opacity:1;" d="M 58.832031 57.816406 C 58.84375 57.804688 51.359375 59.265625 44.96875 63.753906 C 42.371094 65.578125 39.367188 68.058594 37.367188 70.429688 C 35.027344 73.203125 33.796875 75.339844 33.316406 76.730469 C 33.269531 76.855469 33.371094 77.378906 33.664063 77.515625 C 34.316406 77.820313 35.710938 77.753906 37.160156 77.609375 C 39.316406 77.394531 41.351563 76.621094 41.28125 77.039063 C 40.953125 78.960938 41.117188 81.214844 40.585938 81.695313 C 37.613281 84.371094 32.402344 89.507813 30.109375 92.882813 C 28.058594 95.898438 28.039063 97.160156 28.074219 98.46875 C 28.09375 99.191406 30.441406 99.6875 33.71875 97.460938 C 37.203125 95.085938 41.628906 89.96875 41.632813 90.648438 C 41.171875 94.003906 41.292969 94.722656 40.90625 96.355469 C 39.523438 98.117188 36.375 100.953125 33.71875 102.800781 C 31.222656 104.535156 28.789063 105.585938 27.46875 106.199219 C 21.625 108.90625 21.28125 104.332031 21.574219 102.574219 C 21.863281 100.816406 22.050781 100.035156 22.792969 98.359375 C 23.535156 96.679688 24.851563 94.523438 26.09375 92.773438 C 28.90625 88.8125 32.84375 84.886719 33.746094 84.136719 C 32.113281 84.484375 28.046875 85.171875 27.6875 83.4375 C 27.226563 81.21875 28.292969 78.175781 29.441406 75.355469 C 30.828125 71.949219 33 69.285156 33.175781 69.050781 C 36.082031 65.121094 40.121094 60.929688 43.871094 58.417969 C 48.832031 55.09375 52.988281 54.015625 59.765625 52.296875 Z M 84.164063 135.828125 C 92.765625 135.003906 106.882813 131.195313 119.972656 123.832031 C 132.257813 116.917969 143.644531 106.773438 148.726563 94.515625 L 135.738281 100.441406 L 147.085938 86.40625 L 136.964844 77.761719 L 154.355469 77.804688 L 165.550781 64.210938 L 164.804688 78.347656 L 182.15625 78.175781 L 164.328125 86.570313 L 163.964844 100.441406 L 157.535156 95.058594 C 156.878906 100.578125 141.160156 118.3125 126.027344 126.96875 C 105.261719 138.84375 82.496094 140.582031 69.703125 140.582031 C 60.714844 140.582031 48.410156 137.875 40.59375 133.480469 C 28.949219 126.929688 24.757813 118.519531 25.273438 109.832031 C 26.847656 120.710938 33.203125 127.15625 41.644531 130.890625 C 49.457031 134.351563 58.679688 136.199219 67.863281 136.574219 C 73.476563 136.804688 78.976563 136.328125 84.164063 135.828125 Z M 44.476563 76.503906 C 46.613281 75.738281 47.832031 74.417969 49.796875 73.761719 C 51.527344 75.371094 48.757813 83.703125 49.105469 86.585938 C 49.8125 86.089844 52.15625 82.929688 53.652344 79.359375 C 55.054688 76.011719 55.617188 72.300781 56.117188 70.273438 C 58.855469 69.101563 60.417969 68.078125 61.046875 68.078125 C 61.046875 70.488281 59.875 78.628906 59.894531 83.226563 C 59.898438 84.269531 61.824219 83.402344 62.28125 82.613281 C 62.332031 84.664063 62.285156 81.992188 62.285156 84.605469 C 61.621094 85.066406 60.375 86.121094 58.992188 86.941406 C 57.609375 87.761719 56.070313 88.210938 55.34375 87.910156 C 54.152344 87.425781 54.417969 84.242188 55.019531 82.226563 C 53.484375 83.351563 52.328125 87.300781 50.152344 89.929688 C 48.523438 91.902344 47.476563 92.910156 46.035156 92.734375 C 45.554688 92.675781 44.273438 92.757813 43.992188 92.335938 C 43.007813 90.855469 43.933594 88.644531 44.167969 86.414063 C 44.457031 83.636719 44.585938 80.59375 44.667969 77.957031 C 44.6875 77.289063 44.476563 77.203125 44.476563 76.503906 Z M 64.796875 66.546875 C 65.875 66.4375 67.589844 65.644531 69.855469 64.578125 C 70.582031 64.238281 69.945313 69.710938 69.992188 70.664063 C 70.878906 69.632813 71.433594 67.199219 72.9375 65.230469 C 74.757813 62.855469 77.796875 61.097656 78.46875 61.097656 C 78.394531 62.71875 78.019531 64.320313 77.859375 66.253906 C 75.433594 66.78125 73.914063 69.417969 71.960938 72.335938 C 70.121094 75.078125 69.066406 80.179688 69.066406 82.425781 C 66.558594 82.886719 65.320313 84.121094 63.195313 84.429688 C 63.195313 83.171875 63.632813 81.949219 63.730469 80.742188 C 63.949219 78.089844 64.179688 75.371094 64.429688 72.796875 C 64.632813 70.695313 64.796875 68.796875 64.796875 66.546875 Z M 90.425781 61.964844 C 91.253906 63.039063 91.210938 65.441406 90.058594 69.039063 C 89.664063 70.277344 89.207031 71.539063 88.488281 72.246094 C 87.117188 73.59375 85.4375 73.761719 84.191406 73.761719 C 83.871094 72.617188 83.710938 71.785156 83.6875 70.8125 C 83.664063 69.953125 83.785156 68.875 84.109375 67.476563 C 84.796875 64.492188 87.449219 61.8125 90.425781 61.964844 Z M 89.253906 58.332031 C 93.628906 58.332031 97.078125 61.855469 96.773438 67.183594 C 96.464844 72.511719 89.945313 77.214844 85.570313 77.214844 C 81.195313 77.214844 78.042969 75.710938 78.042969 69.078125 C 78.042969 62.441406 84.878906 58.332031 89.253906 58.332031 Z M 112.8125 58.308594 C 113.648438 58.308594 113.496094 60.480469 112.902344 62.410156 C 112.566406 63.492188 111.949219 64.5 111.648438 65.007813 C 110.800781 66.421875 110.691406 66.570313 109.15625 67.523438 C 107.625 68.476563 104.761719 69.175781 104.761719 68.292969 C 104.761719 67.890625 105.699219 65.699219 107.28125 63.535156 C 109.195313 60.925781 111.503906 58.308594 112.8125 58.308594 Z M 99.570313 56.515625 L 105.105469 55.574219 C 106.507813 55.316406 105.347656 59.644531 105.601563 60.796875 C 105.992188 59.695313 109.90625 54.714844 111.261719 54.496094 C 112.441406 53.707031 117.867188 54.695313 118.859375 56.800781 C 119.507813 58.171875 119.554688 58.890625 119.519531 59.902344 C 119.492188 60.59375 119.59375 61.367188 119.148438 62.804688 C 118.292969 65.578125 116.976563 67.253906 115.445313 68.570313 C 114.527344 69.355469 113.671875 70.085938 112.410156 70.648438 C 110.070313 71.703125 108.410156 71.921875 107.425781 72.03125 C 105.980469 72.195313 105.441406 72.089844 103.796875 72.066406 C 103.585938 72.789063 103.421875 77.972656 102.792969 80.121094 C 99.582031 80.761719 99.933594 81.28125 96.976563 81.28125 C 98.148438 74.070313 99.25 66.449219 99.484375 59.238281 C 99.496094 58.855469 99.609375 58.65625 99.472656 58.089844 C 99.351563 57.589844 98.9375 56.621094 99.570313 56.515625 Z M 136.003906 55.132813 C 135.960938 56.296875 133.144531 59.996094 131.664063 61.355469 C 130.179688 62.714844 128.121094 64.878906 127.003906 64.769531 C 125.882813 64.664063 127.796875 59.695313 128.59375 58.125 C 129.386719 56.554688 134.195313 55.132813 136.003906 55.132813 Z M 142.652344 51.53125 C 142.929688 52.960938 140.929688 61.894531 140.929688 64.664063 C 140.929688 65.375 144.117188 63.976563 143.476563 64.4375 C 143.503906 65.101563 143.46875 65.636719 143.335938 66.242188 C 142.398438 66.585938 139.976563 67.433594 138.328125 67.578125 C 137.242188 67.671875 136.339844 67.75 135.703125 67.570313 C 135.179688 67.421875 134.855469 67.027344 134.617188 66.917969 C 133.929688 66.589844 134.535156 63.925781 134.921875 62.546875 C 133.96875 62.546875 131.539063 66.953125 128.914063 68.289063 C 126.445313 69.542969 123.511719 67.855469 122.484375 67.277344 C 120.222656 66.003906 120.96875 62.492188 120.96875 61.0625 C 120.96875 60.484375 121.308594 58.804688 122.363281 57.183594 C 123.351563 55.660156 124.996094 54.195313 126.835938 53.363281 C 132.371094 50.847656 141.261719 51.53125 142.652344 51.53125 Z M 88.074219 82.824219 C 88.664063 82.824219 90.144531 82.316406 91.128906 82.082031 C 91.386719 83.230469 90.949219 84.714844 90.734375 86.304688 C 90.191406 90.363281 88.964844 95.109375 88.691406 96.71875 C 88.570313 97.433594 87.917969 101.457031 87.449219 102.613281 C 87.222656 103.171875 88.421875 102.609375 88.804688 102.441406 C 88.777344 102.988281 88.796875 102.871094 88.777344 103.214844 C 87.101563 103.898438 84.460938 104.96875 84.460938 103.464844 C 84.460938 102.71875 86.296875 94.316406 87.160156 90.742188 C 88.03125 87.144531 87.996094 83.464844 88.074219 82.824219 Z M 97.410156 86.820313 C 99.046875 87.21875 93.488281 100.183594 95.097656 99.714844 C 96.136719 99.410156 100.386719 95.097656 103.472656 90.992188 C 105.796875 87.898438 107.105469 84.695313 107.628906 84.339844 C 108.914063 84.277344 109.035156 84.28125 110.144531 84.105469 C 110.113281 84.804688 109.855469 85.742188 109.636719 86.855469 C 109.351563 88.335938 109.09375 90.089844 108.691406 91.886719 C 108.210938 94.039063 107.496094 96.367188 107.125 98.375 C 107.003906 99.039063 108.03125 98.539063 108.597656 98.433594 C 108.609375 98.851563 108.546875 98.945313 108.550781 99.179688 C 107.738281 99.917969 104.253906 100.3125 104.105469 99.589844 C 103.742188 97.796875 105.671875 92.402344 105.980469 91.089844 C 104.683594 92.492188 103.179688 95.480469 100.359375 98.128906 C 99.042969 99.367188 97.488281 101.046875 96.132813 101.632813 C 93.871094 102.609375 92.0625 101.789063 92.0625 99.941406 C 92.0625 97.570313 94.3125 90.855469 94.574219 89.335938 C 94.757813 88.257813 94.5625 88.007813 94.445313 87.246094 C 95.210938 87.007813 95.230469 86.972656 97.410156 86.820313 Z M 127.402344 81.511719 C 127.238281 82.265625 127.144531 82.519531 126.789063 83.867188 C 125.089844 83.71875 121.808594 83.769531 119.230469 84.488281 C 117.351563 85.011719 115.589844 85.421875 115.414063 86.910156 C 115.328125 87.617188 115.933594 88.328125 117.574219 88.511719 C 119.4375 88.714844 122.46875 88.355469 124.324219 88.660156 C 126.710938 89.050781 127.398438 90.429688 127.398438 90.886719 C 127.398438 91.9375 126.929688 93.59375 125.476563 94.960938 C 124.339844 96.027344 121.523438 97.589844 118.554688 98.140625 C 115.1875 98.765625 111.546875 98.328125 110.644531 98.328125 C 110.703125 97.394531 110.679688 97.175781 111.191406 96.078125 C 112.210938 96.367188 117.882813 96.402344 120.742188 95.535156 C 123.988281 94.546875 124.011719 94.417969 124.296875 93.039063 C 124.398438 92.542969 124.429688 91.492188 122.675781 91.296875 C 120.6875 91.070313 117.070313 91.707031 115.328125 91.230469 C 112.4375 90.433594 112.414063 88.550781 112.414063 87.964844 C 112.414063 86.148438 113.230469 85.148438 116.574219 83.246094 C 119.300781 81.691406 124.878906 81.335938 127.402344 81.511719 Z M 70.578125 88.675781 C 71.105469 88.464844 72.789063 87.730469 73.457031 87.496094 C 73.769531 88.042969 73.410156 88.738281 73.789063 88.800781 C 75.441406 88.183594 77.328125 87.460938 79.136719 87.128906 C 82.152344 86.574219 84.964844 87.117188 84.964844 89.878906 C 84.964844 90.695313 84.449219 92.746094 82.5 95.203125 C 81.476563 96.488281 79.507813 98.292969 78.207031 99.222656 C 74.945313 101.554688 74.015625 102.640625 71.371094 103.941406 C 71.042969 104.105469 70.394531 109.28125 69.5 112.09375 C 68.429688 112.730469 69.621094 112.15625 66.65625 113.265625 C 66.511719 111.730469 68.449219 106.070313 67.941406 106.382813 C 64.621094 108.429688 62.089844 110.277344 61.019531 111.703125 C 60.722656 112.097656 60.1875 110.566406 60.070313 110.429688 C 61.59375 109.289063 61.496094 109.09375 64.011719 107.578125 C 65.96875 106.402344 67.726563 105.324219 68.402344 104.679688 C 68.613281 103.363281 69.046875 101.800781 69.320313 100.226563 C 69.898438 96.890625 70.34375 93.5 70.542969 92.3125 C 69.429688 92.664063 68.015625 94.398438 67.335938 94.113281 C 67.5625 92.429688 67.488281 93.386719 67.664063 91.792969 C 69.167969 90.972656 69.703125 90.59375 70.59375 90.03125 C 70.664063 88.941406 70.59375 89.585938 70.578125 88.675781 Z M 73.175781 91.007813 C 73.847656 90.753906 74.90625 90.371094 76.273438 89.878906 C 78.273438 89.160156 80.691406 88.609375 81.550781 89.621094 C 82.992188 91.332031 80.617188 94.972656 79.382813 96.335938 C 78.144531 97.699219 72.367188 102.667969 71.472656 102.707031 C 71.472656 101.960938 72.199219 99.027344 72.480469 96.289063 C 72.78125 93.375 73.082031 91.730469 73.175781 91.007813 "/>
</g>
</svg>
